<mxfile host="app.diagrams.net" modified="2023-06-07T23:36:41.547Z" agent="Mozilla/5.0 (Windows NT 10.0; Win64; x64) AppleWebKit/537.36 (KHTML, like Gecko) Chrome/109.0.0.0 Safari/537.36" etag="jgD0pRQUQ9nBaszmVqtd" version="21.3.7" type="google">
  <diagram name="PÃ¡gina-1" id="jP9pUobCFxJWK1u-tJic">
    <mxGraphModel grid="1" page="1" gridSize="10" guides="1" tooltips="1" connect="1" arrows="1" fold="1" pageScale="1" pageWidth="2000" pageHeight="1400" math="0" shadow="0">
      <root>
        <mxCell id="0" />
        <mxCell id="1" parent="0" />
        <mxCell id="AVxumqEzy1j-WuFpYA7i-40" value="" style="rounded=0;whiteSpace=wrap;html=1;" vertex="1" parent="1">
          <mxGeometry x="-7904" y="120" width="1884" height="1100" as="geometry" />
        </mxCell>
        <mxCell id="ePErdwJNNjj-NmdiMzOE-2" value="CAPA PRESENTACION" style="text;html=1;strokeColor=none;fillColor=none;align=center;verticalAlign=middle;whiteSpace=wrap;rounded=0;fontSize=13;" vertex="1" parent="1">
          <mxGeometry x="-7816" y="168" width="150" height="30" as="geometry" />
        </mxCell>
        <mxCell id="ePErdwJNNjj-NmdiMzOE-3" value="CAPA LOGICA" style="text;html=1;strokeColor=none;fillColor=none;align=center;verticalAlign=middle;whiteSpace=wrap;rounded=0;fontSize=13;" vertex="1" parent="1">
          <mxGeometry x="-7266" y="168" width="110" height="30" as="geometry" />
        </mxCell>
        <mxCell id="ePErdwJNNjj-NmdiMzOE-4" value="CAPA DATOS" style="text;html=1;strokeColor=none;fillColor=none;align=center;verticalAlign=middle;whiteSpace=wrap;rounded=0;fontSize=13;" vertex="1" parent="1">
          <mxGeometry x="-6745" y="168" width="115" height="30" as="geometry" />
        </mxCell>
        <mxCell id="ePErdwJNNjj-NmdiMzOE-7" value="" style="endArrow=none;endFill=0;endSize=12;html=1;rounded=0;jumpSize=10;startArrow=none;exitX=0.433;exitY=1;exitDx=0;exitDy=0;exitPerimeter=0;" edge="1" parent="1" source="jZZFq1b_KK4ZeFmH8QeK-28">
          <mxGeometry width="160" relative="1" as="geometry">
            <mxPoint x="-7503" y="165" as="sourcePoint" />
            <mxPoint x="-7500" y="1210" as="targetPoint" />
          </mxGeometry>
        </mxCell>
        <mxCell id="ePErdwJNNjj-NmdiMzOE-8" value="" style="endArrow=none;endFill=0;endSize=12;html=1;rounded=0;jumpSize=10;" edge="1" parent="1">
          <mxGeometry width="160" relative="1" as="geometry">
            <mxPoint x="-6944" y="168" as="sourcePoint" />
            <mxPoint x="-6944" y="1210" as="targetPoint" />
          </mxGeometry>
        </mxCell>
        <mxCell id="jZZFq1b_KK4ZeFmH8QeK-121" style="rounded=0;orthogonalLoop=1;jettySize=auto;html=1;exitX=0;exitY=0.5;exitDx=0;exitDy=0;exitPerimeter=0;entryX=1;entryY=0.5;entryDx=0;entryDy=0;dashed=1;endArrow=open;endFill=0;" edge="1" parent="1" target="jZZFq1b_KK4ZeFmH8QeK-96">
          <mxGeometry relative="1" as="geometry">
            <mxPoint x="-6305" y="697.25" as="sourcePoint" />
          </mxGeometry>
        </mxCell>
        <mxCell id="jZZFq1b_KK4ZeFmH8QeK-122" style="rounded=0;orthogonalLoop=1;jettySize=auto;html=1;exitX=0;exitY=0.5;exitDx=0;exitDy=0;exitPerimeter=0;entryX=1;entryY=0.5;entryDx=0;entryDy=0;dashed=1;endArrow=open;endFill=0;" edge="1" parent="1" target="jZZFq1b_KK4ZeFmH8QeK-102">
          <mxGeometry relative="1" as="geometry">
            <mxPoint x="-6305" y="697.25" as="sourcePoint" />
          </mxGeometry>
        </mxCell>
        <mxCell id="jZZFq1b_KK4ZeFmH8QeK-123" style="rounded=0;orthogonalLoop=1;jettySize=auto;html=1;exitX=0;exitY=0.5;exitDx=0;exitDy=0;exitPerimeter=0;entryX=1;entryY=0.5;entryDx=0;entryDy=0;dashed=1;endArrow=open;endFill=0;" edge="1" parent="1" target="jZZFq1b_KK4ZeFmH8QeK-111">
          <mxGeometry relative="1" as="geometry">
            <mxPoint x="-6305" y="697.25" as="sourcePoint" />
          </mxGeometry>
        </mxCell>
        <mxCell id="jZZFq1b_KK4ZeFmH8QeK-124" style="rounded=0;orthogonalLoop=1;jettySize=auto;html=1;exitX=0;exitY=0.5;exitDx=0;exitDy=0;exitPerimeter=0;entryX=1;entryY=0.5;entryDx=0;entryDy=0;dashed=1;endArrow=open;endFill=0;" edge="1" parent="1" target="jZZFq1b_KK4ZeFmH8QeK-117">
          <mxGeometry relative="1" as="geometry">
            <mxPoint x="-6305" y="697.25" as="sourcePoint" />
          </mxGeometry>
        </mxCell>
        <mxCell id="jZZFq1b_KK4ZeFmH8QeK-132" style="rounded=0;orthogonalLoop=1;jettySize=auto;html=1;exitX=0;exitY=0.5;exitDx=0;exitDy=0;exitPerimeter=0;entryX=1;entryY=0.5;entryDx=0;entryDy=0;dashed=1;endArrow=open;endFill=0;" edge="1" parent="1" target="jZZFq1b_KK4ZeFmH8QeK-130">
          <mxGeometry relative="1" as="geometry">
            <mxPoint x="-6305" y="697.25" as="sourcePoint" />
          </mxGeometry>
        </mxCell>
        <mxCell id="jZZFq1b_KK4ZeFmH8QeK-139" style="rounded=0;orthogonalLoop=1;jettySize=auto;html=1;exitX=0;exitY=0.5;exitDx=0;exitDy=0;exitPerimeter=0;entryX=1;entryY=0.5;entryDx=0;entryDy=0;dashed=1;endArrow=open;endFill=0;" edge="1" parent="1" target="jZZFq1b_KK4ZeFmH8QeK-137">
          <mxGeometry relative="1" as="geometry">
            <mxPoint x="-6305" y="697.25" as="sourcePoint" />
          </mxGeometry>
        </mxCell>
        <mxCell id="jZZFq1b_KK4ZeFmH8QeK-146" style="rounded=0;orthogonalLoop=1;jettySize=auto;html=1;exitX=0;exitY=0.5;exitDx=0;exitDy=0;exitPerimeter=0;entryX=1;entryY=0.5;entryDx=0;entryDy=0;dashed=1;endArrow=open;endFill=0;" edge="1" parent="1" target="jZZFq1b_KK4ZeFmH8QeK-144">
          <mxGeometry relative="1" as="geometry">
            <mxPoint x="-6305" y="697.25" as="sourcePoint" />
          </mxGeometry>
        </mxCell>
        <mxCell id="mVPzgNN9Ln5UGvdZvRYN-4" style="rounded=0;orthogonalLoop=1;jettySize=auto;html=1;entryX=1;entryY=0.5;entryDx=0;entryDy=0;dashed=1;endArrow=open;endFill=0;" edge="1" parent="1" target="jZZFq1b_KK4ZeFmH8QeK-154">
          <mxGeometry relative="1" as="geometry">
            <mxPoint x="-6310" y="700" as="sourcePoint" />
          </mxGeometry>
        </mxCell>
        <mxCell id="jZZFq1b_KK4ZeFmH8QeK-3" value="CITACION.HTML" style="shape=module;align=left;spacingLeft=20;align=center;verticalAlign=middle;" vertex="1" parent="1">
          <mxGeometry x="-7825" y="417" width="150" height="60" as="geometry" />
        </mxCell>
        <mxCell id="jZZFq1b_KK4ZeFmH8QeK-4" value="USUARIOS.HTML" style="shape=module;align=left;spacingLeft=20;align=center;verticalAlign=middle;" vertex="1" parent="1">
          <mxGeometry x="-7825" y="247" width="150" height="40" as="geometry" />
        </mxCell>
        <mxCell id="jZZFq1b_KK4ZeFmH8QeK-5" value="CURSO.HTML" style="shape=module;align=left;spacingLeft=20;align=center;verticalAlign=middle;" vertex="1" parent="1">
          <mxGeometry x="-7796" y="887" width="110" height="50" as="geometry" />
        </mxCell>
        <mxCell id="jZZFq1b_KK4ZeFmH8QeK-6" value="SOLICITUD CUPOS.HTML" style="shape=module;align=left;spacingLeft=20;align=center;verticalAlign=middle;" vertex="1" parent="1">
          <mxGeometry x="-7840" y="327" width="180" height="50" as="geometry" />
        </mxCell>
        <mxCell id="jZZFq1b_KK4ZeFmH8QeK-7" value="HISTORIA CLINICA.HTML" style="shape=module;align=left;spacingLeft=20;align=center;verticalAlign=middle;" vertex="1" parent="1">
          <mxGeometry x="-7833.75" y="517" width="185.5" height="52" as="geometry" />
        </mxCell>
        <mxCell id="jZZFq1b_KK4ZeFmH8QeK-8" value="MEDICAMENTO.HTML" style="shape=module;align=left;spacingLeft=20;align=center;verticalAlign=middle;" vertex="1" parent="1">
          <mxGeometry x="-7818.5" y="607" width="155" height="50" as="geometry" />
        </mxCell>
        <mxCell id="jZZFq1b_KK4ZeFmH8QeK-9" value="ALERGIA.HTML" style="shape=module;align=left;spacingLeft=20;align=center;verticalAlign=middle;" vertex="1" parent="1">
          <mxGeometry x="-7803.5" y="698" width="125" height="50" as="geometry" />
        </mxCell>
        <mxCell id="jZZFq1b_KK4ZeFmH8QeK-10" value="ENFERMEDAD.HTML" style="shape=module;align=left;spacingLeft=20;align=center;verticalAlign=middle;" vertex="1" parent="1">
          <mxGeometry x="-7818.5" y="797" width="155" height="50" as="geometry" />
        </mxCell>
        <mxCell id="jZZFq1b_KK4ZeFmH8QeK-12" value="" style="endArrow=none;endFill=0;endSize=12;html=1;rounded=0;jumpSize=10;" edge="1" parent="1" target="jZZFq1b_KK4ZeFmH8QeK-11">
          <mxGeometry width="160" relative="1" as="geometry">
            <mxPoint x="-7503" y="165" as="sourcePoint" />
            <mxPoint x="-7503" y="1165" as="targetPoint" />
          </mxGeometry>
        </mxCell>
        <mxCell id="jZZFq1b_KK4ZeFmH8QeK-32" style="edgeStyle=orthogonalEdgeStyle;rounded=0;orthogonalLoop=1;jettySize=auto;html=1;entryX=0;entryY=0;entryDx=0;entryDy=35;entryPerimeter=0;endArrow=open;endFill=0;" edge="1" parent="1" source="jZZFq1b_KK4ZeFmH8QeK-11" target="jZZFq1b_KK4ZeFmH8QeK-31">
          <mxGeometry relative="1" as="geometry" />
        </mxCell>
        <mxCell id="jZZFq1b_KK4ZeFmH8QeK-11" value="" style="ellipse;whiteSpace=wrap;html=1;aspect=fixed;" vertex="1" parent="1">
          <mxGeometry x="-7515" y="587" width="20" height="20" as="geometry" />
        </mxCell>
        <mxCell id="jZZFq1b_KK4ZeFmH8QeK-15" style="rounded=0;orthogonalLoop=1;jettySize=auto;html=1;entryX=1;entryY=0.5;entryDx=0;entryDy=0;endArrow=open;endFill=0;" edge="1" parent="1" source="jZZFq1b_KK4ZeFmH8QeK-13" target="jZZFq1b_KK4ZeFmH8QeK-4">
          <mxGeometry relative="1" as="geometry" />
        </mxCell>
        <mxCell id="jZZFq1b_KK4ZeFmH8QeK-16" style="rounded=0;orthogonalLoop=1;jettySize=auto;html=1;entryX=1;entryY=0.5;entryDx=0;entryDy=0;endArrow=open;endFill=0;" edge="1" parent="1" source="jZZFq1b_KK4ZeFmH8QeK-13" target="jZZFq1b_KK4ZeFmH8QeK-6">
          <mxGeometry relative="1" as="geometry" />
        </mxCell>
        <mxCell id="jZZFq1b_KK4ZeFmH8QeK-17" style="rounded=0;orthogonalLoop=1;jettySize=auto;html=1;entryX=1;entryY=0.5;entryDx=0;entryDy=0;endArrow=open;endFill=0;exitX=0.079;exitY=0.122;exitDx=0;exitDy=0;exitPerimeter=0;" edge="1" parent="1" source="jZZFq1b_KK4ZeFmH8QeK-13" target="jZZFq1b_KK4ZeFmH8QeK-3">
          <mxGeometry relative="1" as="geometry" />
        </mxCell>
        <mxCell id="jZZFq1b_KK4ZeFmH8QeK-19" style="rounded=0;orthogonalLoop=1;jettySize=auto;html=1;entryX=1;entryY=0.5;entryDx=0;entryDy=0;endArrow=open;endFill=0;exitX=0.038;exitY=0.164;exitDx=0;exitDy=0;exitPerimeter=0;" edge="1" parent="1" source="jZZFq1b_KK4ZeFmH8QeK-13" target="jZZFq1b_KK4ZeFmH8QeK-7">
          <mxGeometry relative="1" as="geometry" />
        </mxCell>
        <mxCell id="jZZFq1b_KK4ZeFmH8QeK-20" style="rounded=0;orthogonalLoop=1;jettySize=auto;html=1;entryX=1;entryY=0.5;entryDx=0;entryDy=0;endArrow=open;endFill=0;exitX=-0.025;exitY=0.261;exitDx=0;exitDy=0;exitPerimeter=0;" edge="1" parent="1" source="jZZFq1b_KK4ZeFmH8QeK-13" target="jZZFq1b_KK4ZeFmH8QeK-8">
          <mxGeometry relative="1" as="geometry" />
        </mxCell>
        <mxCell id="jZZFq1b_KK4ZeFmH8QeK-21" style="rounded=0;orthogonalLoop=1;jettySize=auto;html=1;entryX=1;entryY=0.5;entryDx=0;entryDy=0;endArrow=open;endFill=0;exitX=-0.067;exitY=0.4;exitDx=0;exitDy=0;exitPerimeter=0;" edge="1" parent="1" source="jZZFq1b_KK4ZeFmH8QeK-13" target="jZZFq1b_KK4ZeFmH8QeK-9">
          <mxGeometry relative="1" as="geometry" />
        </mxCell>
        <mxCell id="jZZFq1b_KK4ZeFmH8QeK-22" style="rounded=0;orthogonalLoop=1;jettySize=auto;html=1;entryX=1;entryY=0.5;entryDx=0;entryDy=0;endArrow=open;endFill=0;exitX=-0.108;exitY=0.567;exitDx=0;exitDy=0;exitPerimeter=0;" edge="1" parent="1" source="jZZFq1b_KK4ZeFmH8QeK-13" target="jZZFq1b_KK4ZeFmH8QeK-10">
          <mxGeometry relative="1" as="geometry" />
        </mxCell>
        <mxCell id="jZZFq1b_KK4ZeFmH8QeK-26" style="rounded=0;orthogonalLoop=1;jettySize=auto;html=1;entryX=1;entryY=0.5;entryDx=0;entryDy=0;endArrow=open;endFill=0;exitX=-0.046;exitY=0.789;exitDx=0;exitDy=0;exitPerimeter=0;" edge="1" parent="1" source="jZZFq1b_KK4ZeFmH8QeK-13" target="jZZFq1b_KK4ZeFmH8QeK-5">
          <mxGeometry relative="1" as="geometry" />
        </mxCell>
        <mxCell id="AVxumqEzy1j-WuFpYA7i-24" style="rounded=0;orthogonalLoop=1;jettySize=auto;html=1;entryX=1;entryY=0.5;entryDx=0;entryDy=0;endArrow=open;endFill=0;" edge="1" parent="1" source="jZZFq1b_KK4ZeFmH8QeK-13" target="AVxumqEzy1j-WuFpYA7i-21">
          <mxGeometry relative="1" as="geometry" />
        </mxCell>
        <mxCell id="jZZFq1b_KK4ZeFmH8QeK-13" value="" style="verticalLabelPosition=bottom;verticalAlign=top;html=1;shape=mxgraph.basic.arc;startAngle=0.4894053476825268;endAngle=0;" vertex="1" parent="1">
          <mxGeometry x="-7522" y="582" width="20" height="30" as="geometry" />
        </mxCell>
        <mxCell id="jZZFq1b_KK4ZeFmH8QeK-30" value="" style="endArrow=none;endFill=0;endSize=12;html=1;rounded=0;jumpSize=10;startArrow=none;entryX=0.433;entryY=0.035;entryDx=0;entryDy=0;entryPerimeter=0;" edge="1" parent="1" source="jZZFq1b_KK4ZeFmH8QeK-11" target="jZZFq1b_KK4ZeFmH8QeK-28">
          <mxGeometry width="160" relative="1" as="geometry">
            <mxPoint x="-7505" y="607" as="sourcePoint" />
            <mxPoint x="-7503" y="1165" as="targetPoint" />
          </mxGeometry>
        </mxCell>
        <mxCell id="jZZFq1b_KK4ZeFmH8QeK-28" value="&lt;font style=&quot;font-size: 13px;&quot;&gt;&lt;font style=&quot;font-size: 13px;&quot; face=&quot;Verdana&quot;&gt;inicio&lt;br style=&quot;&quot;&gt;sesiÃ³n&lt;/font&gt;&lt;br&gt;&lt;/font&gt;" style="text;html=1;strokeColor=none;fillColor=none;align=center;verticalAlign=middle;whiteSpace=wrap;rounded=0;fontSize=10;fontStyle=0" vertex="1" parent="1">
          <mxGeometry x="-7535" y="619" width="70" height="38" as="geometry" />
        </mxCell>
        <mxCell id="jZZFq1b_KK4ZeFmH8QeK-44" style="rounded=0;orthogonalLoop=1;jettySize=auto;html=1;entryX=0;entryY=0;entryDx=0;entryDy=15;entryPerimeter=0;dashed=1;endArrow=open;endFill=0;edgeStyle=orthogonalEdgeStyle;" edge="1" parent="1" target="jZZFq1b_KK4ZeFmH8QeK-37">
          <mxGeometry relative="1" as="geometry">
            <mxPoint x="-7405" y="562" as="sourcePoint" />
            <Array as="points">
              <mxPoint x="-7405" y="257" />
            </Array>
          </mxGeometry>
        </mxCell>
        <mxCell id="jZZFq1b_KK4ZeFmH8QeK-45" style="rounded=0;orthogonalLoop=1;jettySize=auto;html=1;entryX=0;entryY=0;entryDx=0;entryDy=15;entryPerimeter=0;dashed=1;endArrow=open;endFill=0;edgeStyle=orthogonalEdgeStyle;exitX=0.4;exitY=0.05;exitDx=0;exitDy=0;exitPerimeter=0;" edge="1" parent="1" source="jZZFq1b_KK4ZeFmH8QeK-31" target="jZZFq1b_KK4ZeFmH8QeK-34">
          <mxGeometry relative="1" as="geometry">
            <mxPoint x="-7375" y="555" as="sourcePoint" />
            <Array as="points">
              <mxPoint x="-7375" y="352" />
            </Array>
          </mxGeometry>
        </mxCell>
        <mxCell id="jZZFq1b_KK4ZeFmH8QeK-46" style="rounded=0;orthogonalLoop=1;jettySize=auto;html=1;exitX=0.657;exitY=0.017;exitDx=0;exitDy=0;entryX=0;entryY=0;entryDx=0;entryDy=15;entryPerimeter=0;dashed=1;endArrow=open;endFill=0;edgeStyle=orthogonalEdgeStyle;exitPerimeter=0;" edge="1" parent="1" source="jZZFq1b_KK4ZeFmH8QeK-31" target="jZZFq1b_KK4ZeFmH8QeK-38">
          <mxGeometry relative="1" as="geometry">
            <Array as="points">
              <mxPoint x="-7344" y="562" />
              <mxPoint x="-7345" y="518" />
            </Array>
          </mxGeometry>
        </mxCell>
        <mxCell id="jZZFq1b_KK4ZeFmH8QeK-47" style="rounded=0;orthogonalLoop=1;jettySize=auto;html=1;exitX=1;exitY=0;exitDx=0;exitDy=0;entryX=0;entryY=0;entryDx=0;entryDy=15;entryPerimeter=0;dashed=1;endArrow=open;endFill=0;" edge="1" parent="1" source="jZZFq1b_KK4ZeFmH8QeK-31" target="jZZFq1b_KK4ZeFmH8QeK-39">
          <mxGeometry relative="1" as="geometry">
            <mxPoint x="-7303" y="575" as="sourcePoint" />
          </mxGeometry>
        </mxCell>
        <mxCell id="jZZFq1b_KK4ZeFmH8QeK-48" style="rounded=0;orthogonalLoop=1;jettySize=auto;html=1;exitX=1;exitY=1;exitDx=0;exitDy=0;entryX=0;entryY=0;entryDx=0;entryDy=15;entryPerimeter=0;dashed=1;endArrow=open;endFill=0;" edge="1" parent="1" source="jZZFq1b_KK4ZeFmH8QeK-31" target="jZZFq1b_KK4ZeFmH8QeK-40">
          <mxGeometry relative="1" as="geometry" />
        </mxCell>
        <mxCell id="jZZFq1b_KK4ZeFmH8QeK-49" style="rounded=0;orthogonalLoop=1;jettySize=auto;html=1;exitX=0.925;exitY=1.033;exitDx=0;exitDy=0;entryX=0;entryY=0;entryDx=0;entryDy=15;entryPerimeter=0;dashed=1;endArrow=open;endFill=0;edgeStyle=orthogonalEdgeStyle;exitPerimeter=0;" edge="1" parent="1" source="jZZFq1b_KK4ZeFmH8QeK-31" target="jZZFq1b_KK4ZeFmH8QeK-41">
          <mxGeometry relative="1" as="geometry">
            <Array as="points">
              <mxPoint x="-7312" y="795" />
              <mxPoint x="-7192" y="795" />
            </Array>
          </mxGeometry>
        </mxCell>
        <mxCell id="jZZFq1b_KK4ZeFmH8QeK-50" style="rounded=0;orthogonalLoop=1;jettySize=auto;html=1;exitX=0.75;exitY=1;exitDx=0;exitDy=0;entryX=0;entryY=0;entryDx=0;entryDy=15;entryPerimeter=0;dashed=1;endArrow=open;endFill=0;edgeStyle=orthogonalEdgeStyle;" edge="1" parent="1" source="jZZFq1b_KK4ZeFmH8QeK-31" target="jZZFq1b_KK4ZeFmH8QeK-36">
          <mxGeometry relative="1" as="geometry">
            <Array as="points">
              <mxPoint x="-7333" y="902" />
            </Array>
          </mxGeometry>
        </mxCell>
        <mxCell id="JOyiVA6PZCXj1PjKpeMY-7" style="edgeStyle=orthogonalEdgeStyle;rounded=0;orthogonalLoop=1;jettySize=auto;html=1;exitX=0.5;exitY=1;exitDx=0;exitDy=0;entryX=0;entryY=0;entryDx=0;entryDy=35;entryPerimeter=0;dashed=1;endArrow=open;endFill=0;" edge="1" parent="1" source="jZZFq1b_KK4ZeFmH8QeK-31" target="JOyiVA6PZCXj1PjKpeMY-6">
          <mxGeometry relative="1" as="geometry">
            <Array as="points">
              <mxPoint x="-7363" y="1020" />
              <mxPoint x="-7206" y="1020" />
            </Array>
          </mxGeometry>
        </mxCell>
        <mxCell id="AVxumqEzy1j-WuFpYA7i-26" style="edgeStyle=orthogonalEdgeStyle;rounded=0;orthogonalLoop=1;jettySize=auto;html=1;exitX=0;exitY=1;exitDx=10;exitDy=0;exitPerimeter=0;entryX=0;entryY=0;entryDx=0;entryDy=35;entryPerimeter=0;dashed=1;endArrow=open;endFill=0;" edge="1" parent="1" source="jZZFq1b_KK4ZeFmH8QeK-31" target="AVxumqEzy1j-WuFpYA7i-22">
          <mxGeometry relative="1" as="geometry" />
        </mxCell>
        <mxCell id="jZZFq1b_KK4ZeFmH8QeK-31" value="VALIDACIÃN &#xa;USUARIO.JAVA" style="shape=module;align=left;spacingLeft=20;align=center;verticalAlign=middle;" vertex="1" parent="1">
          <mxGeometry x="-7423" y="562" width="120" height="60" as="geometry" />
        </mxCell>
        <mxCell id="jZZFq1b_KK4ZeFmH8QeK-101" style="edgeStyle=orthogonalEdgeStyle;rounded=0;orthogonalLoop=1;jettySize=auto;html=1;exitX=1;exitY=0.5;exitDx=0;exitDy=0;entryX=-0.25;entryY=0.517;entryDx=0;entryDy=0;entryPerimeter=0;dashed=1;endArrow=open;endFill=0;startArrow=none;startFill=0;" edge="1" parent="1" source="jZZFq1b_KK4ZeFmH8QeK-34" target="jZZFq1b_KK4ZeFmH8QeK-99">
          <mxGeometry relative="1" as="geometry" />
        </mxCell>
        <mxCell id="jZZFq1b_KK4ZeFmH8QeK-34" value="CITACION.py" style="shape=module;align=left;spacingLeft=20;align=center;verticalAlign=middle;" vertex="1" parent="1">
          <mxGeometry x="-7223" y="336.5" width="150" height="60" as="geometry" />
        </mxCell>
        <mxCell id="jZZFq1b_KK4ZeFmH8QeK-143" style="edgeStyle=orthogonalEdgeStyle;rounded=0;orthogonalLoop=1;jettySize=auto;html=1;exitX=1;exitY=0.5;exitDx=0;exitDy=0;dashed=1;endArrow=open;endFill=0;" edge="1" parent="1" source="jZZFq1b_KK4ZeFmH8QeK-36" target="jZZFq1b_KK4ZeFmH8QeK-141">
          <mxGeometry relative="1" as="geometry" />
        </mxCell>
        <mxCell id="jZZFq1b_KK4ZeFmH8QeK-36" value="CURSO.py" style="shape=module;align=left;spacingLeft=20;align=center;verticalAlign=middle;" vertex="1" parent="1">
          <mxGeometry x="-7195" y="887" width="110" height="50" as="geometry" />
        </mxCell>
        <mxCell id="jZZFq1b_KK4ZeFmH8QeK-95" style="edgeStyle=orthogonalEdgeStyle;rounded=0;orthogonalLoop=1;jettySize=auto;html=1;entryX=-0.083;entryY=0.55;entryDx=0;entryDy=0;entryPerimeter=0;dashed=1;endArrow=open;endFill=0;startArrow=none;startFill=0;" edge="1" parent="1" source="jZZFq1b_KK4ZeFmH8QeK-37" target="jZZFq1b_KK4ZeFmH8QeK-93">
          <mxGeometry relative="1" as="geometry" />
        </mxCell>
        <mxCell id="jZZFq1b_KK4ZeFmH8QeK-37" value="SOLICITUD CUPOS.py" style="shape=module;align=left;spacingLeft=20;align=center;verticalAlign=middle;" vertex="1" parent="1">
          <mxGeometry x="-7238" y="242" width="180" height="50" as="geometry" />
        </mxCell>
        <mxCell id="jZZFq1b_KK4ZeFmH8QeK-110" style="edgeStyle=orthogonalEdgeStyle;rounded=0;orthogonalLoop=1;jettySize=auto;html=1;exitX=1;exitY=0.5;exitDx=0;exitDy=0;entryX=0;entryY=0.6;entryDx=0;entryDy=0;entryPerimeter=0;dashed=1;endArrow=open;endFill=0;startArrow=none;startFill=0;" edge="1" parent="1" source="jZZFq1b_KK4ZeFmH8QeK-38" target="jZZFq1b_KK4ZeFmH8QeK-108">
          <mxGeometry relative="1" as="geometry" />
        </mxCell>
        <mxCell id="jZZFq1b_KK4ZeFmH8QeK-38" value="HISTORIA CLINICA.py" style="shape=module;align=left;spacingLeft=20;align=center;verticalAlign=middle;" vertex="1" parent="1">
          <mxGeometry x="-7227.5" y="448" width="185.5" height="52" as="geometry" />
        </mxCell>
        <mxCell id="jZZFq1b_KK4ZeFmH8QeK-116" style="rounded=0;orthogonalLoop=1;jettySize=auto;html=1;exitX=0.968;exitY=0.553;exitDx=0;exitDy=0;entryX=-0.233;entryY=0.589;entryDx=0;entryDy=0;entryPerimeter=0;dashed=1;endArrow=open;endFill=0;exitPerimeter=0;" edge="1" parent="1" source="jZZFq1b_KK4ZeFmH8QeK-39" target="jZZFq1b_KK4ZeFmH8QeK-114">
          <mxGeometry relative="1" as="geometry" />
        </mxCell>
        <mxCell id="jZZFq1b_KK4ZeFmH8QeK-39" value="MEDICAMENTO.py" style="shape=module;align=left;spacingLeft=20;align=center;verticalAlign=middle;" vertex="1" parent="1">
          <mxGeometry x="-7160" y="548" width="155" height="50" as="geometry" />
        </mxCell>
        <mxCell id="jZZFq1b_KK4ZeFmH8QeK-129" style="rounded=0;orthogonalLoop=1;jettySize=auto;html=1;exitX=1;exitY=0.5;exitDx=0;exitDy=0;entryX=-0.233;entryY=0.589;entryDx=0;entryDy=0;entryPerimeter=0;dashed=1;endArrow=open;endFill=0;" edge="1" parent="1" source="jZZFq1b_KK4ZeFmH8QeK-40" target="jZZFq1b_KK4ZeFmH8QeK-126">
          <mxGeometry relative="1" as="geometry" />
        </mxCell>
        <mxCell id="jZZFq1b_KK4ZeFmH8QeK-40" value="ALERGIA.py" style="shape=module;align=left;spacingLeft=20;align=center;verticalAlign=middle;" vertex="1" parent="1">
          <mxGeometry x="-7187.5" y="681" width="125" height="50" as="geometry" />
        </mxCell>
        <mxCell id="jZZFq1b_KK4ZeFmH8QeK-136" style="edgeStyle=orthogonalEdgeStyle;rounded=0;orthogonalLoop=1;jettySize=auto;html=1;exitX=1;exitY=0.5;exitDx=0;exitDy=0;entryX=-0.15;entryY=0.644;entryDx=0;entryDy=0;entryPerimeter=0;dashed=1;endArrow=open;endFill=0;" edge="1" parent="1" source="jZZFq1b_KK4ZeFmH8QeK-41" target="jZZFq1b_KK4ZeFmH8QeK-134">
          <mxGeometry relative="1" as="geometry" />
        </mxCell>
        <mxCell id="jZZFq1b_KK4ZeFmH8QeK-41" value="ENFERMEDAD.py" style="shape=module;align=left;spacingLeft=20;align=center;verticalAlign=middle;" vertex="1" parent="1">
          <mxGeometry x="-7192.5" y="778" width="155" height="50" as="geometry" />
        </mxCell>
        <mxCell id="jZZFq1b_KK4ZeFmH8QeK-55" value="" style="ellipse;whiteSpace=wrap;html=1;aspect=fixed;" vertex="1" parent="1">
          <mxGeometry x="-7328" y="247" width="20" height="20" as="geometry" />
        </mxCell>
        <mxCell id="jZZFq1b_KK4ZeFmH8QeK-56" value="" style="verticalLabelPosition=bottom;verticalAlign=top;html=1;shape=mxgraph.basic.arc;startAngle=0.4894053476825268;endAngle=0;" vertex="1" parent="1">
          <mxGeometry x="-7335" y="242" width="20" height="30" as="geometry" />
        </mxCell>
        <mxCell id="jZZFq1b_KK4ZeFmH8QeK-57" value="&lt;font style=&quot;font-size: 13px;&quot;&gt;&lt;font face=&quot;Verdana&quot;&gt;i_&lt;/font&gt;solicitud_cupos&lt;br&gt;&lt;/font&gt;" style="text;html=1;strokeColor=none;fillColor=none;align=center;verticalAlign=middle;whiteSpace=wrap;rounded=0;fontSize=10;fontStyle=0" vertex="1" parent="1">
          <mxGeometry x="-7367.5" y="266" width="97" height="38" as="geometry" />
        </mxCell>
        <mxCell id="jZZFq1b_KK4ZeFmH8QeK-58" value="" style="ellipse;whiteSpace=wrap;html=1;aspect=fixed;" vertex="1" parent="1">
          <mxGeometry x="-7316.5" y="338" width="20" height="20" as="geometry" />
        </mxCell>
        <mxCell id="jZZFq1b_KK4ZeFmH8QeK-59" value="" style="verticalLabelPosition=bottom;verticalAlign=top;html=1;shape=mxgraph.basic.arc;startAngle=0.4894053476825268;endAngle=0;" vertex="1" parent="1">
          <mxGeometry x="-7323.5" y="333" width="20" height="30" as="geometry" />
        </mxCell>
        <mxCell id="jZZFq1b_KK4ZeFmH8QeK-60" value="&lt;font style=&quot;font-size: 13px;&quot;&gt;&lt;font face=&quot;Verdana&quot;&gt;i_&lt;/font&gt;citaciÃ³n&lt;br&gt;&lt;/font&gt;" style="text;html=1;strokeColor=none;fillColor=none;align=center;verticalAlign=middle;whiteSpace=wrap;rounded=0;fontSize=10;fontStyle=0" vertex="1" parent="1">
          <mxGeometry x="-7355" y="363" width="97" height="38" as="geometry" />
        </mxCell>
        <mxCell id="jZZFq1b_KK4ZeFmH8QeK-62" value="" style="ellipse;whiteSpace=wrap;html=1;aspect=fixed;" vertex="1" parent="1">
          <mxGeometry x="-7301" y="453" width="20" height="20" as="geometry" />
        </mxCell>
        <mxCell id="jZZFq1b_KK4ZeFmH8QeK-63" value="" style="verticalLabelPosition=bottom;verticalAlign=top;html=1;shape=mxgraph.basic.arc;startAngle=0.4894053476825268;endAngle=0;" vertex="1" parent="1">
          <mxGeometry x="-7308" y="448" width="20" height="30" as="geometry" />
        </mxCell>
        <mxCell id="jZZFq1b_KK4ZeFmH8QeK-64" value="&lt;font style=&quot;font-size: 13px;&quot;&gt;&lt;font face=&quot;Verdana&quot;&gt;i_&lt;/font&gt;historia_clÃ­nica&lt;br&gt;&lt;/font&gt;" style="text;html=1;strokeColor=none;fillColor=none;align=center;verticalAlign=middle;whiteSpace=wrap;rounded=0;fontSize=10;fontStyle=0" vertex="1" parent="1">
          <mxGeometry x="-7335" y="474" width="97" height="38" as="geometry" />
        </mxCell>
        <mxCell id="jZZFq1b_KK4ZeFmH8QeK-69" value="" style="ellipse;whiteSpace=wrap;html=1;aspect=fixed;" vertex="1" parent="1">
          <mxGeometry x="-7241.5" y="555.5" width="20" height="20" as="geometry" />
        </mxCell>
        <mxCell id="jZZFq1b_KK4ZeFmH8QeK-70" value="" style="verticalLabelPosition=bottom;verticalAlign=top;html=1;shape=mxgraph.basic.arc;startAngle=0.4894053476825268;endAngle=0;" vertex="1" parent="1">
          <mxGeometry x="-7248.5" y="550.5" width="20" height="30" as="geometry" />
        </mxCell>
        <mxCell id="jZZFq1b_KK4ZeFmH8QeK-71" value="&lt;font style=&quot;font-size: 12px;&quot;&gt;&lt;font style=&quot;font-size: 12px;&quot; face=&quot;Verdana&quot;&gt;i_&lt;/font&gt;medicamento&lt;br&gt;&lt;/font&gt;" style="text;html=1;strokeColor=none;fillColor=none;align=center;verticalAlign=middle;whiteSpace=wrap;rounded=0;fontSize=10;fontStyle=0" vertex="1" parent="1">
          <mxGeometry x="-7283.75" y="569" width="104.5" height="43" as="geometry" />
        </mxCell>
        <mxCell id="jZZFq1b_KK4ZeFmH8QeK-72" value="&lt;font style=&quot;font-size: 13px;&quot;&gt;&lt;font style=&quot;font-size: 13px;&quot; face=&quot;Verdana&quot;&gt;i_&lt;/font&gt;alergia&lt;br&gt;&lt;/font&gt;" style="text;html=1;strokeColor=none;fillColor=none;align=center;verticalAlign=middle;whiteSpace=wrap;rounded=0;fontSize=10;fontStyle=0" vertex="1" parent="1">
          <mxGeometry x="-7306.5" y="657" width="97" height="38" as="geometry" />
        </mxCell>
        <mxCell id="jZZFq1b_KK4ZeFmH8QeK-73" value="&lt;font style=&quot;font-size: 13px;&quot;&gt;&lt;font face=&quot;Verdana&quot;&gt;i_&lt;/font&gt;enfermedad&lt;br&gt;&lt;/font&gt;" style="text;html=1;strokeColor=none;fillColor=none;align=center;verticalAlign=middle;whiteSpace=wrap;rounded=0;fontSize=10;fontStyle=0" vertex="1" parent="1">
          <mxGeometry x="-7369.25" y="803" width="165.5" height="38" as="geometry" />
        </mxCell>
        <mxCell id="jZZFq1b_KK4ZeFmH8QeK-74" value="&lt;font style=&quot;font-size: 13px;&quot;&gt;&lt;font face=&quot;Verdana&quot;&gt;i_curso&lt;/font&gt;&lt;br&gt;&lt;/font&gt;" style="text;html=1;strokeColor=none;fillColor=none;align=center;verticalAlign=middle;whiteSpace=wrap;rounded=0;fontSize=10;fontStyle=0" vertex="1" parent="1">
          <mxGeometry x="-7338" y="915" width="97" height="38" as="geometry" />
        </mxCell>
        <mxCell id="jZZFq1b_KK4ZeFmH8QeK-76" value="" style="ellipse;whiteSpace=wrap;html=1;aspect=fixed;" vertex="1" parent="1">
          <mxGeometry x="-7262.5" y="642" width="20" height="20" as="geometry" />
        </mxCell>
        <mxCell id="jZZFq1b_KK4ZeFmH8QeK-77" value="" style="verticalLabelPosition=bottom;verticalAlign=top;html=1;shape=mxgraph.basic.arc;startAngle=0.4894053476825268;endAngle=0;" vertex="1" parent="1">
          <mxGeometry x="-7269.5" y="637" width="20" height="30" as="geometry" />
        </mxCell>
        <mxCell id="jZZFq1b_KK4ZeFmH8QeK-78" value="" style="ellipse;whiteSpace=wrap;html=1;aspect=fixed;" vertex="1" parent="1">
          <mxGeometry x="-7292.5" y="786" width="20" height="20" as="geometry" />
        </mxCell>
        <mxCell id="jZZFq1b_KK4ZeFmH8QeK-79" value="" style="verticalLabelPosition=bottom;verticalAlign=top;html=1;shape=mxgraph.basic.arc;startAngle=0.4894053476825268;endAngle=0;" vertex="1" parent="1">
          <mxGeometry x="-7299.5" y="781" width="20" height="30" as="geometry" />
        </mxCell>
        <mxCell id="jZZFq1b_KK4ZeFmH8QeK-80" value="" style="ellipse;whiteSpace=wrap;html=1;aspect=fixed;" vertex="1" parent="1">
          <mxGeometry x="-7299.5" y="890" width="20" height="20" as="geometry" />
        </mxCell>
        <mxCell id="jZZFq1b_KK4ZeFmH8QeK-81" value="" style="verticalLabelPosition=bottom;verticalAlign=top;html=1;shape=mxgraph.basic.arc;startAngle=0.4894053476825268;endAngle=0;" vertex="1" parent="1">
          <mxGeometry x="-7306.5" y="885" width="20" height="30" as="geometry" />
        </mxCell>
        <mxCell id="jZZFq1b_KK4ZeFmH8QeK-97" style="edgeStyle=orthogonalEdgeStyle;rounded=0;orthogonalLoop=1;jettySize=auto;html=1;exitX=1;exitY=0.5;exitDx=0;exitDy=0;entryX=0;entryY=0;entryDx=0;entryDy=15;entryPerimeter=0;endArrow=open;endFill=0;dashed=1;" edge="1" parent="1" source="jZZFq1b_KK4ZeFmH8QeK-92" target="jZZFq1b_KK4ZeFmH8QeK-96">
          <mxGeometry relative="1" as="geometry" />
        </mxCell>
        <mxCell id="jZZFq1b_KK4ZeFmH8QeK-92" value="" style="ellipse;whiteSpace=wrap;html=1;aspect=fixed;" vertex="1" parent="1">
          <mxGeometry x="-6878" y="254.5" width="20" height="20" as="geometry" />
        </mxCell>
        <mxCell id="jZZFq1b_KK4ZeFmH8QeK-93" value="" style="verticalLabelPosition=bottom;verticalAlign=top;html=1;shape=mxgraph.basic.arc;startAngle=0.4894053476825268;endAngle=0;" vertex="1" parent="1">
          <mxGeometry x="-6885" y="249.5" width="20" height="30" as="geometry" />
        </mxCell>
        <mxCell id="jZZFq1b_KK4ZeFmH8QeK-94" value="&lt;font style=&quot;font-size: 13px;&quot;&gt;&lt;font face=&quot;Verdana&quot;&gt;i_solicitud_cupos&lt;/font&gt;&lt;br&gt;&lt;/font&gt;" style="text;html=1;strokeColor=none;fillColor=none;align=center;verticalAlign=middle;whiteSpace=wrap;rounded=0;fontSize=10;fontStyle=0" vertex="1" parent="1">
          <mxGeometry x="-6903" y="276.5" width="70" height="38" as="geometry" />
        </mxCell>
        <mxCell id="jZZFq1b_KK4ZeFmH8QeK-96" value="SOLICITUD CUPOSDAO.py" style="shape=module;align=left;spacingLeft=20;align=center;verticalAlign=middle;" vertex="1" parent="1">
          <mxGeometry x="-6759.25" y="249" width="190" height="38" as="geometry" />
        </mxCell>
        <mxCell id="jZZFq1b_KK4ZeFmH8QeK-104" style="edgeStyle=orthogonalEdgeStyle;rounded=0;orthogonalLoop=1;jettySize=auto;html=1;exitX=1;exitY=0.5;exitDx=0;exitDy=0;entryX=0;entryY=0;entryDx=0;entryDy=15;entryPerimeter=0;dashed=1;endArrow=open;endFill=0;" edge="1" parent="1" source="jZZFq1b_KK4ZeFmH8QeK-98" target="jZZFq1b_KK4ZeFmH8QeK-102">
          <mxGeometry relative="1" as="geometry" />
        </mxCell>
        <mxCell id="jZZFq1b_KK4ZeFmH8QeK-98" value="" style="ellipse;whiteSpace=wrap;html=1;aspect=fixed;" vertex="1" parent="1">
          <mxGeometry x="-6878" y="356.5" width="20" height="20" as="geometry" />
        </mxCell>
        <mxCell id="jZZFq1b_KK4ZeFmH8QeK-99" value="" style="verticalLabelPosition=bottom;verticalAlign=top;html=1;shape=mxgraph.basic.arc;startAngle=0.4894053476825268;endAngle=0;" vertex="1" parent="1">
          <mxGeometry x="-6885" y="351.5" width="20" height="30" as="geometry" />
        </mxCell>
        <mxCell id="jZZFq1b_KK4ZeFmH8QeK-100" value="&lt;font style=&quot;font-size: 13px;&quot;&gt;&lt;font face=&quot;Verdana&quot;&gt;i_citaciÃ³n&lt;/font&gt;&lt;br&gt;&lt;/font&gt;" style="text;html=1;strokeColor=none;fillColor=none;align=center;verticalAlign=middle;whiteSpace=wrap;rounded=0;fontSize=10;fontStyle=0" vertex="1" parent="1">
          <mxGeometry x="-6903" y="378.5" width="70" height="38" as="geometry" />
        </mxCell>
        <mxCell id="jZZFq1b_KK4ZeFmH8QeK-102" value="CITACIONDAO.py" style="shape=module;align=left;spacingLeft=20;align=center;verticalAlign=middle;" vertex="1" parent="1">
          <mxGeometry x="-6758.5" y="351" width="150" height="53.5" as="geometry" />
        </mxCell>
        <mxCell id="mVPzgNN9Ln5UGvdZvRYN-1" style="edgeStyle=orthogonalEdgeStyle;rounded=0;orthogonalLoop=1;jettySize=auto;html=1;exitX=1;exitY=0.5;exitDx=0;exitDy=0;entryX=0;entryY=0;entryDx=0;entryDy=15;entryPerimeter=0;dashed=1;endArrow=open;endFill=0;" edge="1" parent="1" source="jZZFq1b_KK4ZeFmH8QeK-107" target="jZZFq1b_KK4ZeFmH8QeK-111">
          <mxGeometry relative="1" as="geometry" />
        </mxCell>
        <mxCell id="jZZFq1b_KK4ZeFmH8QeK-107" value="" style="ellipse;whiteSpace=wrap;html=1;aspect=fixed;" vertex="1" parent="1">
          <mxGeometry x="-6878" y="461" width="20" height="20" as="geometry" />
        </mxCell>
        <mxCell id="jZZFq1b_KK4ZeFmH8QeK-108" value="" style="verticalLabelPosition=bottom;verticalAlign=top;html=1;shape=mxgraph.basic.arc;startAngle=0.4894053476825268;endAngle=0;" vertex="1" parent="1">
          <mxGeometry x="-6885" y="456" width="20" height="30" as="geometry" />
        </mxCell>
        <mxCell id="jZZFq1b_KK4ZeFmH8QeK-109" value="&lt;font style=&quot;&quot;&gt;&lt;font style=&quot;font-size: 13px;&quot; face=&quot;Verdana&quot;&gt;i_historia_&lt;/font&gt;&lt;font face=&quot;Verdana&quot;&gt;&lt;span style=&quot;font-size: 13px;&quot;&gt;clÃ­nica&lt;/span&gt;&lt;/font&gt;&lt;br&gt;&lt;/font&gt;" style="text;html=1;strokeColor=none;fillColor=none;align=center;verticalAlign=middle;whiteSpace=wrap;rounded=0;fontSize=10;fontStyle=0" vertex="1" parent="1">
          <mxGeometry x="-6903" y="483" width="70" height="38" as="geometry" />
        </mxCell>
        <mxCell id="jZZFq1b_KK4ZeFmH8QeK-111" value="HISTORIA CLINICADAO.py" style="shape=module;align=left;spacingLeft=20;align=center;verticalAlign=middle;" vertex="1" parent="1">
          <mxGeometry x="-6772.75" y="456" width="185.5" height="52" as="geometry" />
        </mxCell>
        <mxCell id="jZZFq1b_KK4ZeFmH8QeK-119" style="edgeStyle=orthogonalEdgeStyle;rounded=0;orthogonalLoop=1;jettySize=auto;html=1;exitX=1;exitY=0.5;exitDx=0;exitDy=0;entryX=0;entryY=0;entryDx=0;entryDy=15;entryPerimeter=0;dashed=1;endArrow=open;endFill=0;" edge="1" parent="1" source="jZZFq1b_KK4ZeFmH8QeK-113" target="jZZFq1b_KK4ZeFmH8QeK-117">
          <mxGeometry relative="1" as="geometry" />
        </mxCell>
        <mxCell id="jZZFq1b_KK4ZeFmH8QeK-113" value="" style="ellipse;whiteSpace=wrap;html=1;aspect=fixed;" vertex="1" parent="1">
          <mxGeometry x="-6885" y="563" width="20" height="20" as="geometry" />
        </mxCell>
        <mxCell id="jZZFq1b_KK4ZeFmH8QeK-114" value="" style="verticalLabelPosition=bottom;verticalAlign=top;html=1;shape=mxgraph.basic.arc;startAngle=0.4894053476825268;endAngle=0;" vertex="1" parent="1">
          <mxGeometry x="-6892" y="558" width="20" height="30" as="geometry" />
        </mxCell>
        <mxCell id="jZZFq1b_KK4ZeFmH8QeK-115" value="&lt;font style=&quot;&quot;&gt;&lt;font face=&quot;Verdana&quot;&gt;&lt;span style=&quot;font-size: 13px;&quot;&gt;i_medicamento&lt;/span&gt;&lt;/font&gt;&lt;br&gt;&lt;/font&gt;" style="text;html=1;strokeColor=none;fillColor=none;align=center;verticalAlign=middle;whiteSpace=wrap;rounded=0;fontSize=10;fontStyle=0" vertex="1" parent="1">
          <mxGeometry x="-6910" y="585" width="70" height="38" as="geometry" />
        </mxCell>
        <mxCell id="jZZFq1b_KK4ZeFmH8QeK-117" value="MEDICAMENTODAO.py" style="shape=module;align=left;spacingLeft=20;align=center;verticalAlign=middle;" vertex="1" parent="1">
          <mxGeometry x="-6765" y="558" width="170" height="50" as="geometry" />
        </mxCell>
        <mxCell id="jZZFq1b_KK4ZeFmH8QeK-131" style="edgeStyle=orthogonalEdgeStyle;rounded=0;orthogonalLoop=1;jettySize=auto;html=1;exitX=1;exitY=0.5;exitDx=0;exitDy=0;entryX=0;entryY=0;entryDx=0;entryDy=15;entryPerimeter=0;dashed=1;endArrow=open;endFill=0;" edge="1" parent="1" source="jZZFq1b_KK4ZeFmH8QeK-125" target="jZZFq1b_KK4ZeFmH8QeK-130">
          <mxGeometry relative="1" as="geometry" />
        </mxCell>
        <mxCell id="jZZFq1b_KK4ZeFmH8QeK-125" value="" style="ellipse;whiteSpace=wrap;html=1;aspect=fixed;" vertex="1" parent="1">
          <mxGeometry x="-6885" y="699" width="20" height="20" as="geometry" />
        </mxCell>
        <mxCell id="jZZFq1b_KK4ZeFmH8QeK-126" value="" style="verticalLabelPosition=bottom;verticalAlign=top;html=1;shape=mxgraph.basic.arc;startAngle=0.4894053476825268;endAngle=0;" vertex="1" parent="1">
          <mxGeometry x="-6892" y="694" width="20" height="30" as="geometry" />
        </mxCell>
        <mxCell id="jZZFq1b_KK4ZeFmH8QeK-127" value="&lt;font style=&quot;&quot;&gt;&lt;font face=&quot;Verdana&quot;&gt;&lt;span style=&quot;font-size: 13px;&quot;&gt;i_alergia&lt;/span&gt;&lt;/font&gt;&lt;br&gt;&lt;/font&gt;" style="text;html=1;strokeColor=none;fillColor=none;align=center;verticalAlign=middle;whiteSpace=wrap;rounded=0;fontSize=10;fontStyle=0" vertex="1" parent="1">
          <mxGeometry x="-6910" y="721" width="70" height="38" as="geometry" />
        </mxCell>
        <mxCell id="jZZFq1b_KK4ZeFmH8QeK-130" value="ALERGIADAO.py" style="shape=module;align=left;spacingLeft=20;align=center;verticalAlign=middle;" vertex="1" parent="1">
          <mxGeometry x="-6742.5" y="694" width="137.5" height="45" as="geometry" />
        </mxCell>
        <mxCell id="jZZFq1b_KK4ZeFmH8QeK-138" style="edgeStyle=orthogonalEdgeStyle;rounded=0;orthogonalLoop=1;jettySize=auto;html=1;exitX=1;exitY=0.5;exitDx=0;exitDy=0;entryX=0;entryY=0;entryDx=0;entryDy=15;entryPerimeter=0;dashed=1;endArrow=open;endFill=0;" edge="1" parent="1" source="jZZFq1b_KK4ZeFmH8QeK-133" target="jZZFq1b_KK4ZeFmH8QeK-137">
          <mxGeometry relative="1" as="geometry" />
        </mxCell>
        <mxCell id="jZZFq1b_KK4ZeFmH8QeK-133" value="" style="ellipse;whiteSpace=wrap;html=1;aspect=fixed;" vertex="1" parent="1">
          <mxGeometry x="-6885" y="789" width="20" height="20" as="geometry" />
        </mxCell>
        <mxCell id="jZZFq1b_KK4ZeFmH8QeK-134" value="" style="verticalLabelPosition=bottom;verticalAlign=top;html=1;shape=mxgraph.basic.arc;startAngle=0.4894053476825268;endAngle=0;" vertex="1" parent="1">
          <mxGeometry x="-6892" y="784" width="20" height="30" as="geometry" />
        </mxCell>
        <mxCell id="jZZFq1b_KK4ZeFmH8QeK-135" value="&lt;font style=&quot;&quot;&gt;&lt;font face=&quot;Verdana&quot;&gt;&lt;span style=&quot;font-size: 13px;&quot;&gt;i_enfermedad&lt;/span&gt;&lt;/font&gt;&lt;br&gt;&lt;/font&gt;" style="text;html=1;strokeColor=none;fillColor=none;align=center;verticalAlign=middle;whiteSpace=wrap;rounded=0;fontSize=10;fontStyle=0" vertex="1" parent="1">
          <mxGeometry x="-6910" y="811" width="70" height="38" as="geometry" />
        </mxCell>
        <mxCell id="jZZFq1b_KK4ZeFmH8QeK-137" value="ENFERMEDADDAO.py" style="shape=module;align=left;spacingLeft=20;align=center;verticalAlign=middle;" vertex="1" parent="1">
          <mxGeometry x="-6768.75" y="784" width="177.5" height="48" as="geometry" />
        </mxCell>
        <mxCell id="jZZFq1b_KK4ZeFmH8QeK-145" style="edgeStyle=orthogonalEdgeStyle;rounded=0;orthogonalLoop=1;jettySize=auto;html=1;exitX=1;exitY=0.5;exitDx=0;exitDy=0;entryX=0;entryY=0;entryDx=0;entryDy=15;entryPerimeter=0;dashed=1;endArrow=open;endFill=0;" edge="1" parent="1" source="jZZFq1b_KK4ZeFmH8QeK-140" target="jZZFq1b_KK4ZeFmH8QeK-144">
          <mxGeometry relative="1" as="geometry" />
        </mxCell>
        <mxCell id="jZZFq1b_KK4ZeFmH8QeK-140" value="" style="ellipse;whiteSpace=wrap;html=1;aspect=fixed;" vertex="1" parent="1">
          <mxGeometry x="-6885" y="902" width="20" height="20" as="geometry" />
        </mxCell>
        <mxCell id="jZZFq1b_KK4ZeFmH8QeK-141" value="" style="verticalLabelPosition=bottom;verticalAlign=top;html=1;shape=mxgraph.basic.arc;startAngle=0.4894053476825268;endAngle=0;" vertex="1" parent="1">
          <mxGeometry x="-6892" y="897" width="20" height="30" as="geometry" />
        </mxCell>
        <mxCell id="jZZFq1b_KK4ZeFmH8QeK-142" value="&lt;font style=&quot;&quot;&gt;&lt;font face=&quot;Verdana&quot;&gt;&lt;span style=&quot;font-size: 13px;&quot;&gt;i_curso&lt;/span&gt;&lt;/font&gt;&lt;br&gt;&lt;/font&gt;" style="text;html=1;strokeColor=none;fillColor=none;align=center;verticalAlign=middle;whiteSpace=wrap;rounded=0;fontSize=10;fontStyle=0" vertex="1" parent="1">
          <mxGeometry x="-6910" y="924" width="70" height="38" as="geometry" />
        </mxCell>
        <mxCell id="jZZFq1b_KK4ZeFmH8QeK-144" value="CURSODAO.py" style="shape=module;align=left;spacingLeft=20;align=center;verticalAlign=middle;" vertex="1" parent="1">
          <mxGeometry x="-6738.75" y="897" width="130" height="53" as="geometry" />
        </mxCell>
        <mxCell id="jZZFq1b_KK4ZeFmH8QeK-154" value="USUARIODAO.py" style="shape=module;align=left;spacingLeft=20;align=center;verticalAlign=middle;" vertex="1" parent="1">
          <mxGeometry x="-6745" y="992" width="147" height="50" as="geometry" />
        </mxCell>
        <mxCell id="JOyiVA6PZCXj1PjKpeMY-4" style="edgeStyle=orthogonalEdgeStyle;rounded=0;orthogonalLoop=1;jettySize=auto;html=1;exitX=1;exitY=0.5;exitDx=0;exitDy=0;endArrow=none;endFill=0;startArrow=open;startFill=0;dashed=1;" edge="1" parent="1" source="JOyiVA6PZCXj1PjKpeMY-1" target="JOyiVA6PZCXj1PjKpeMY-3">
          <mxGeometry relative="1" as="geometry" />
        </mxCell>
        <mxCell id="AVxumqEzy1j-WuFpYA7i-39" style="rounded=0;orthogonalLoop=1;jettySize=auto;html=1;exitX=0;exitY=0;exitDx=0;exitDy=35;exitPerimeter=0;entryX=1;entryY=0.5;entryDx=0;entryDy=0;dashed=1;" edge="1" parent="1" source="JOyiVA6PZCXj1PjKpeMY-1" target="AVxumqEzy1j-WuFpYA7i-23">
          <mxGeometry relative="1" as="geometry" />
        </mxCell>
        <mxCell id="JOyiVA6PZCXj1PjKpeMY-1" value="ACCESO &#xa;A DATOS" style="shape=module;align=left;spacingLeft=20;align=center;verticalAlign=middle;" vertex="1" parent="1">
          <mxGeometry x="-6310" y="671" width="110" height="50" as="geometry" />
        </mxCell>
        <mxCell id="JOyiVA6PZCXj1PjKpeMY-3" value="BD" style="shape=cylinder3;whiteSpace=wrap;html=1;boundedLbl=1;backgroundOutline=1;size=15;" vertex="1" parent="1">
          <mxGeometry x="-6140" y="644.5" width="80" height="103" as="geometry" />
        </mxCell>
        <mxCell id="yGtRvmrQJW4XsJtcDSu--3" style="edgeStyle=orthogonalEdgeStyle;rounded=0;orthogonalLoop=1;jettySize=auto;html=1;dashed=1;endArrow=open;endFill=0;" edge="1" parent="1" source="JOyiVA6PZCXj1PjKpeMY-6" target="yGtRvmrQJW4XsJtcDSu--2">
          <mxGeometry relative="1" as="geometry" />
        </mxCell>
        <mxCell id="JOyiVA6PZCXj1PjKpeMY-6" value="USUARIO.py" style="shape=module;align=left;spacingLeft=20;align=center;verticalAlign=middle;" vertex="1" parent="1">
          <mxGeometry x="-7206" y="984" width="147" height="50" as="geometry" />
        </mxCell>
        <mxCell id="yGtRvmrQJW4XsJtcDSu--4" style="edgeStyle=orthogonalEdgeStyle;rounded=0;orthogonalLoop=1;jettySize=auto;html=1;entryX=0;entryY=0;entryDx=0;entryDy=15;entryPerimeter=0;dashed=1;endArrow=open;endFill=0;" edge="1" parent="1" source="yGtRvmrQJW4XsJtcDSu--1" target="jZZFq1b_KK4ZeFmH8QeK-154">
          <mxGeometry relative="1" as="geometry">
            <Array as="points">
              <mxPoint x="-6820" y="1007" />
              <mxPoint x="-6820" y="1007" />
            </Array>
          </mxGeometry>
        </mxCell>
        <mxCell id="yGtRvmrQJW4XsJtcDSu--1" value="" style="ellipse;whiteSpace=wrap;html=1;aspect=fixed;" vertex="1" parent="1">
          <mxGeometry x="-6874.5" y="998" width="20" height="20" as="geometry" />
        </mxCell>
        <mxCell id="yGtRvmrQJW4XsJtcDSu--2" value="" style="verticalLabelPosition=bottom;verticalAlign=top;html=1;shape=mxgraph.basic.arc;startAngle=0.4894053476825268;endAngle=0;" vertex="1" parent="1">
          <mxGeometry x="-6881.5" y="994" width="20" height="30" as="geometry" />
        </mxCell>
        <mxCell id="yGtRvmrQJW4XsJtcDSu--5" value="&lt;font style=&quot;&quot;&gt;&lt;font face=&quot;Verdana&quot;&gt;&lt;span style=&quot;font-size: 13px;&quot;&gt;i_usuarios&lt;/span&gt;&lt;/font&gt;&lt;br&gt;&lt;/font&gt;" style="text;html=1;strokeColor=none;fillColor=none;align=center;verticalAlign=middle;whiteSpace=wrap;rounded=0;fontSize=10;fontStyle=0" vertex="1" parent="1">
          <mxGeometry x="-6935.5" y="1028" width="135" height="38" as="geometry" />
        </mxCell>
        <mxCell id="AVxumqEzy1j-WuFpYA7i-21" value="ESTUDIANTE.HTML" style="shape=module;align=left;spacingLeft=20;align=center;verticalAlign=middle;" vertex="1" parent="1">
          <mxGeometry x="-7811" y="996" width="136" height="50" as="geometry" />
        </mxCell>
        <mxCell id="AVxumqEzy1j-WuFpYA7i-36" style="edgeStyle=orthogonalEdgeStyle;rounded=0;orthogonalLoop=1;jettySize=auto;html=1;exitX=1;exitY=0.5;exitDx=0;exitDy=0;dashed=1;endArrow=open;endFill=0;" edge="1" parent="1" source="AVxumqEzy1j-WuFpYA7i-22" target="AVxumqEzy1j-WuFpYA7i-34">
          <mxGeometry relative="1" as="geometry" />
        </mxCell>
        <mxCell id="AVxumqEzy1j-WuFpYA7i-22" value="ESTUDIANTE.py" style="shape=module;align=left;spacingLeft=20;align=center;verticalAlign=middle;" vertex="1" parent="1">
          <mxGeometry x="-7200.5" y="1084" width="136" height="50" as="geometry" />
        </mxCell>
        <mxCell id="AVxumqEzy1j-WuFpYA7i-23" value="ESTUDIANTEDAO.py" style="shape=module;align=left;spacingLeft=20;align=center;verticalAlign=middle;" vertex="1" parent="1">
          <mxGeometry x="-6754" y="1075" width="175" height="50" as="geometry" />
        </mxCell>
        <mxCell id="AVxumqEzy1j-WuFpYA7i-27" value="" style="ellipse;whiteSpace=wrap;html=1;aspect=fixed;" vertex="1" parent="1">
          <mxGeometry x="-7328.5" y="1108" width="20" height="20" as="geometry" />
        </mxCell>
        <mxCell id="AVxumqEzy1j-WuFpYA7i-28" value="" style="verticalLabelPosition=bottom;verticalAlign=top;html=1;shape=mxgraph.basic.arc;startAngle=0.4894053476825268;endAngle=0;" vertex="1" parent="1">
          <mxGeometry x="-7335.5" y="1103" width="20" height="30" as="geometry" />
        </mxCell>
        <mxCell id="AVxumqEzy1j-WuFpYA7i-29" value="&lt;font style=&quot;font-size: 13px;&quot;&gt;&lt;font face=&quot;Verdana&quot;&gt;i_estudiante&lt;/font&gt;&lt;br&gt;&lt;/font&gt;" style="text;html=1;strokeColor=none;fillColor=none;align=center;verticalAlign=middle;whiteSpace=wrap;rounded=0;fontSize=10;fontStyle=0" vertex="1" parent="1">
          <mxGeometry x="-7385.5" y="1130" width="123.5" height="35" as="geometry" />
        </mxCell>
        <mxCell id="AVxumqEzy1j-WuFpYA7i-38" style="edgeStyle=orthogonalEdgeStyle;rounded=0;orthogonalLoop=1;jettySize=auto;html=1;exitX=1;exitY=0.5;exitDx=0;exitDy=0;entryX=0;entryY=0;entryDx=0;entryDy=35;entryPerimeter=0;dashed=1;endArrow=open;endFill=0;" edge="1" parent="1" source="AVxumqEzy1j-WuFpYA7i-33" target="AVxumqEzy1j-WuFpYA7i-23">
          <mxGeometry relative="1" as="geometry" />
        </mxCell>
        <mxCell id="AVxumqEzy1j-WuFpYA7i-33" value="" style="ellipse;whiteSpace=wrap;html=1;aspect=fixed;" vertex="1" parent="1">
          <mxGeometry x="-6873.5" y="1100" width="20" height="20" as="geometry" />
        </mxCell>
        <mxCell id="AVxumqEzy1j-WuFpYA7i-34" value="" style="verticalLabelPosition=bottom;verticalAlign=top;html=1;shape=mxgraph.basic.arc;startAngle=0.4894053476825268;endAngle=0;" vertex="1" parent="1">
          <mxGeometry x="-6880.5" y="1095" width="20" height="30" as="geometry" />
        </mxCell>
        <mxCell id="AVxumqEzy1j-WuFpYA7i-35" value="&lt;font style=&quot;font-size: 13px;&quot;&gt;&lt;font face=&quot;Verdana&quot;&gt;i_estudiante&lt;/font&gt;&lt;br&gt;&lt;/font&gt;" style="text;html=1;strokeColor=none;fillColor=none;align=center;verticalAlign=middle;whiteSpace=wrap;rounded=0;fontSize=10;fontStyle=0" vertex="1" parent="1">
          <mxGeometry x="-6930.5" y="1125" width="123.5" height="35" as="geometry" />
        </mxCell>
      </root>
    </mxGraphModel>
  </diagram>
</mxfile>
